<svg xmlns="http://www.w3.org/2000/svg" viewBox="0 0 128 128">
  <path fill="#5382A1" d="M44.9 101.4s-6.3 1.8 4.4 2.4c12.3.8 25-.3 37.1-1.7 0 0 2.8.4 6-1.5-11.7.9-23.6 1.8-35.6.8h-11.9z" />
  <path fill="#E76F00" d="M72.2 16.4s8.9 9.1-8.2 22.9C50 51.5 73.1 63.8 73.1 63.8S61.7 54 71 43.1c11.7-13.7 1.2-26.7 1.2-26.7zm-14.8 18.5s9.7 11.2-7 27.5c-15.4 15 8.9 23.9 8.9 23.9S47.6 77.8 57 66.8c11.4-13.2.4-31.9.4-31.9z" />
  <path fill="#5382A1" d="M38.8 112.5s-7.2 2.3 7 3.1c16.3 1 33.1 0 49.3-2.2 0 0 3.7.2 7.7-1.8-15.5 1.5-31.4 2.5-47.3 1.4h-16.7zm49.9-19.6c6.2-4.8 11.6-11.5 11.6-11.5s-4.3 2.8-12.7 5.1c-12.6 3.5-29.8 4.2-41.9.8-4.2-1.2-14.6-4.9-14.6-4.9s1.4 1.7 5.3 3.4c15.1 6.5 37.8 6.4 52.3 7.1z" />
  <path fill="#E76F00" d="M84.7 48.7s8.4 5.9-4.8 18.3c-14.3 13.4-3.1 22.2-3.1 22.2s-12.8-8.8-3.7-19.7c9.5-11.4 11.6-20.8 11.6-20.8z" />
</svg>
