<svg xmlns="http://www.w3.org/2000/svg" viewBox="0 0 128 128">
  <rect width="128" height="128" rx="18" fill="#3178C6" />
  <path fill="#FFF" d="M72.2 107.5c2.3 1.3 5.7 2.5 9.7 2.5 5.5 0 8.6-2.6 8.6-6.7 0-4.1-2.9-6.3-9.5-8.8-9.6-3.7-14.7-8.9-14.7-16.7 0-9.8 8.1-17.3 21.1-17.3 4.8 0 9 1 12.4 2.6l-3.3 9.4c-2.4-1.1-5.7-2-9.2-2-5.7 0-7.8 2.8-7.8 5.7 0 3.7 2.9 5.7 10.3 8.6 9.8 3.8 14 9.1 14 16.9 0 10.6-8.2 18.3-22.6 18.3-5.7 0-11-1.3-14.3-3.2l3.3-9.3zM45 61.5h16.2V110H48.4V72.2H32.6v-10.7H45z" />
</svg>
